<?xml version="1.0" encoding="utf-8"?>
<!-- Generator: Adobe Illustrator 25.3.0, SVG Export Plug-In . SVG Version: 6.00 Build 0)  -->
<svg version="1.1" id="Layer_1" xmlns="http://www.w3.org/2000/svg" xmlns:xlink="http://www.w3.org/1999/xlink" x="0px" y="0px"
	 viewBox="0 0 420 500" style="enable-background:new 0 0 420 500;" xml:space="preserve">
<style type="text/css">
	.st0{fill:#FFFFFF;}
</style>
<path d="M344.58,430.82c-2.8,0-4.79,0-6.78,0c-65.66,0.01-131.31-0.09-196.97,0.13c-15.06,0.05-29.97-0.05-44.27-5.55
	c-15-5.77-20.94-14.4-20.94-30.3c0-93.5,0-186.99-0.01-280.49c0-26.02,18.69-45.47,44.8-45.57c63.99-0.23,127.98-0.1,191.97,0.04
	c1.97,0,4.5,1.24,5.81,2.75c8.3,9.55,16.43,19.26,24.34,29.14c1.37,1.72,1.96,4.51,1.97,6.81c0.12,40.67,0.08,81.33,0.08,122
	c0,64.5,0,129,0,193.5C344.58,425.56,344.58,427.86,344.58,430.82z M303.99,80.73c-11.43,0-22.4,0-33.36,0
	c-49.67,0-99.33-0.05-149,0.03c-20.76,0.03-34.5,13.87-34.5,34.47c-0.01,84.84-0.01,169.69,0,254.53c0,1.53,0.16,3.07,0.27,5.08
	c15.01-9.36,31.03-11.77,47.53-11.8c54.33-0.1,108.67-0.04,163-0.03c1.94,0,3.89,0,6.07,0C303.99,268.79,303.99,175.17,303.99,80.73
	z M315.98,374.53c-2.51,0-4.48,0-6.45,0c-56.65,0-113.31-0.02-169.96,0.03c-5.66,0.01-11.35,0.11-16.96,0.77
	c-9.95,1.18-19.89,2.9-28.14,9.14c-10.87,8.22-9.82,21.82,2.15,28.11c3.78,1.99,7.96,3.9,12.12,4.35
	c11.05,1.19,22.18,2.13,33.28,2.16c61.48,0.2,122.97,0.09,184.45,0.09c2.08,0,4.16,0,6.34,0c0.08-1.78,0.17-2.76,0.17-3.75
	c0.01-101.32,0.01-202.65-0.01-303.97c0-1.31,0.22-3.05-0.49-3.85c-5.1-5.74-10.41-11.3-16.49-17.8
	C315.98,185.41,315.98,279.54,315.98,374.53z"/>
<path class="st0" d="M303.99,80.73c0,94.44,0,188.05,0,282.28c-2.18,0-4.12,0-6.07,0c-54.33,0-108.67-0.07-163,0.03
	c-16.49,0.03-32.52,2.43-47.53,11.8c-0.11-2.01-0.27-3.55-0.27-5.08c-0.01-84.84-0.02-169.69,0-254.53
	c0-20.61,13.74-34.44,34.5-34.47c49.67-0.08,99.33-0.03,149-0.03C281.59,80.73,292.56,80.73,303.99,80.73z"/>
<path class="st0" d="M315.98,374.53c0-94.99,0-189.12,0-284.71c6.07,6.5,11.39,12.05,16.49,17.8c0.71,0.8,0.49,2.54,0.49,3.85
	c0.02,101.32,0.02,202.65,0.01,303.97c0,0.98-0.09,1.97-0.17,3.75c-2.18,0-4.26,0-6.34,0c-61.48,0-122.97,0.1-184.45-0.09
	c-11.1-0.04-22.23-0.97-33.28-2.16c-4.16-0.45-8.34-2.36-12.12-4.35c-11.97-6.29-13.02-19.89-2.15-28.11
	c8.25-6.24,18.2-7.96,28.14-9.14c5.61-0.66,11.3-0.77,16.96-0.77c56.65-0.05,113.31-0.03,169.96-0.03
	C311.5,374.53,313.47,374.53,315.98,374.53z M129.33,404.82c59.06,0,117.78,0,176.6,0c0-3.8,0-7.26,0-11.02
	c-58.94,0-117.68,0-176.6,0C129.33,397.52,129.33,400.97,129.33,404.82z"/>
<path d="M129.33,404.82c0-3.85,0-7.3,0-11.02c58.93,0,117.66,0,176.6,0c0,3.76,0,7.21,0,11.02
	C247.12,404.82,188.4,404.82,129.33,404.82z"/>
<g>
	<path d="M234.5,200.99c-2.49-4.57-5.92-8.04-10.28-10.43c-4.36-2.39-9.45-3.58-15.26-3.58c-6.44,0-12.15,1.46-17.13,4.36
		c-4.98,2.91-8.88,7.06-11.68,12.46c-2.8,5.4-4.21,11.63-4.21,18.69c0,7.27,1.43,13.6,4.28,19c2.85,5.4,6.83,9.55,11.91,12.46
		c5.09,2.91,11,4.36,17.75,4.36c8.3,0,15.11-2.2,20.4-6.62c5.29-4.41,8.77-10.56,10.43-18.46h-37.38v-16.66h58.87v19
		c-1.46,7.58-4.57,14.59-9.34,21.02c-4.78,6.44-10.93,11.6-18.46,15.5c-7.53,3.89-15.96,5.84-25.31,5.84
		c-10.49,0-19.96-2.36-28.42-7.09c-8.46-4.72-15.11-11.29-19.93-19.7c-4.83-8.41-7.24-17.96-7.24-28.66
		c0-10.69,2.41-20.27,7.24-28.73c4.83-8.46,11.47-15.05,19.93-19.78c8.46-4.72,17.88-7.09,28.27-7.09c12.25,0,22.89,2.99,31.93,8.96
		c9.03,5.97,15.26,14.35,18.69,25.15H234.5z"/>
</g>
</svg>
